<svg xmlns="http://www.w3.org/2000/svg" viewBox="0 0 23.65 31"><defs><style>.cls-1{fill:#999;}</style></defs><title>Asset 8xxxhdpi</title><g id="Layer_2" data-name="Layer 2"><g id="Layer_1-2" data-name="Layer 1"><path class="cls-1" d="M17.57,5.76H5.81V0H17.57Zm-10.75-1h9.75V1H6.81Z"/><rect class="cls-1" x="4.5" y="10.79" width="10.62" height="1"/><rect class="cls-1" x="4.51" y="14.81" width="14.63" height="1"/><rect class="cls-1" x="4.51" y="18.83" width="14.63" height="1"/><rect class="cls-1" x="4.51" y="22.84" width="14.63" height="1"/><path class="cls-1" d="M22.47,31H1.18A1.18,1.18,0,0,1,0,29.82V3.55A1.17,1.17,0,0,1,1.17,2.39H6.81V4.76h9.75V2.39h5.92a1.17,1.17,0,0,1,1.17,1.17V29.82A1.18,1.18,0,0,1,22.47,31ZM1.17,3.39A.17.17,0,0,0,1,3.55V29.82a.18.18,0,0,0,.18.18H22.47a.18.18,0,0,0,.18-.18V3.55a.17.17,0,0,0-.17-.17H17.56V5.76H5.81V3.39Z"/></g></g></svg>