<svg xmlns="http://www.w3.org/2000/svg" viewBox="0 0 35.85 28.27"><defs><style>.cls-1{fill:none;}.cls-2{fill:#999;}</style></defs><title>Asset 3xxxhdpi</title><g id="Layer_2" data-name="Layer 2"><g id="Layer_1-2" data-name="Layer 1"><circle class="cls-1" cx="27.05" cy="19.45" r="8.3"/><path class="cls-2" d="M19.35,20.78h-18A1.36,1.36,0,0,1,0,19.42V1.36A1.36,1.36,0,0,1,1.36,0H15a1.35,1.35,0,0,1,.92.36L18.8,3a.36.36,0,0,0,.24.1h7.15a1.36,1.36,0,0,1,1.36,1.36v5.86a1.35,1.35,0,0,1-1.21,1.35,7.8,7.8,0,0,0-7,8.55ZM1.36,1A.36.36,0,0,0,1,1.36V19.42a.36.36,0,0,0,.36.36h16.9q0-.16,0-.33a8.75,8.75,0,0,1,8-8.76.35.35,0,0,0,.3-.35V4.47a.36.36,0,0,0-.36-.36H19a1.35,1.35,0,0,1-.92-.36L15.25,1.1A.36.36,0,0,0,15,1Z"/><path class="cls-2" d="M27.05,28.27a8.8,8.8,0,1,1,8.8-8.8A8.81,8.81,0,0,1,27.05,28.27Zm0-16.59a7.8,7.8,0,1,0,7.8,7.8A7.81,7.81,0,0,0,27.05,11.68Z"/><path class="cls-2" d="M24,23.35a1,1,0,0,1-.71-1.71l5.51-5.55a1,1,0,1,1,1.42,1.41l-5.51,5.55A1,1,0,0,1,24,23.35Z"/><path class="cls-2" d="M29.71,22.81a1,1,0,0,1-1-1V17.6H24.8a1,1,0,0,1,0-2h4.91a1,1,0,0,1,1,1v5.21A1,1,0,0,1,29.71,22.81Z"/></g></g></svg>