<svg xmlns="http://www.w3.org/2000/svg" viewBox="0 0 28.39 28.27"><defs><style>.cls-1{fill:#999;}.cls-2{fill:none;stroke:#999;stroke-miterlimit:10;}</style></defs><title>Asset 1xxxhdpi</title><g id="Layer_2" data-name="Layer 2"><g id="Layer_1-2" data-name="Layer 1"><path class="cls-1" d="M19.83,28.27H1.5A1.5,1.5,0,0,1,0,26.77V1.5A1.5,1.5,0,0,1,1.5,0H19.83a1.5,1.5,0,0,1,1.5,1.5V26.77A1.5,1.5,0,0,1,19.83,28.27ZM1.5,1a.5.5,0,0,0-.5.5V26.77a.5.5,0,0,0,.5.5H19.83a.5.5,0,0,0,.5-.5V1.5a.5.5,0,0,0-.5-.5Z"/><path class="cls-1" d="M8.75,9.46H4.86a.8.8,0,0,1-.8-.8V4.76a.8.8,0,0,1,.8-.8h3.9a.8.8,0,0,1,.8.8v3.9A.8.8,0,0,1,8.75,9.46Zm-3.7-1h3.5V5H5.06Z"/><path class="cls-1" d="M8.75,24.12H4.86a.8.8,0,0,1-.8-.8v-3.9a.8.8,0,0,1,.8-.8h3.9a.8.8,0,0,1,.8.8v3.9A.8.8,0,0,1,8.75,24.12Zm-3.7-1h3.5v-3.5H5.06Z"/><path class="cls-1" d="M8.47,16.4a.5.5,0,0,1-.36-.16L4.58,12.52a.5.5,0,0,1,.73-.69l3.52,3.71a.5.5,0,0,1-.36.84Z"/><path class="cls-1" d="M4.85,16.3a.5.5,0,0,1-.34-.86l3.71-3.52a.5.5,0,0,1,.69.73L5.19,16.16A.5.5,0,0,1,4.85,16.3Z"/><path class="cls-1" d="M17.46,7.4H11.58a.5.5,0,0,1,0-1h5.88a.5.5,0,0,1,0,1Z"/><path class="cls-1" d="M17.51,14.64H11.62a.5.5,0,0,1,0-1h5.88a.5.5,0,0,1,0,1Z"/><path class="cls-1" d="M17.51,21.87H11.62a.5.5,0,1,1,0-1h5.88a.5.5,0,0,1,0,1Z"/><path class="cls-1" d="M26,26.56a.87.87,0,0,1-.67-.32h0l-1.9-2.33V1.67a1,1,0,0,1,1-1h3.08a1,1,0,0,1,1,1V23.91l-1.71,2.3a.87.87,0,0,1-.68.35Zm.1-1h0ZM24.4,23.55,26,25.48l1.41-1.9V1.67l-3,0Z"/><rect class="cls-1" x="23.85" y="4.13" width="4.09" height="1"/><path class="cls-2" d="M25,25.38"/></g></g></svg>