<svg xmlns="http://www.w3.org/2000/svg" width="48" height="56" viewBox="0 0 48 56">
  <defs>
    <style>
      .cls-1 {
        fill: #333;
      }
    </style>
  </defs>
  <g id="ico_join1_a" transform="translate(-178.217 -392.522)">
    <path id="패스_52" data-name="패스 52" class="cls-1" d="M227.946,420.611a14.046,14.046,0,1,1,13.859-14.045A13.969,13.969,0,0,1,227.946,420.611Zm0-25.15a11.106,11.106,0,1,0,10.959,11.105A11.045,11.045,0,0,0,227.946,395.461Z" transform="translate(-25.327 0)"/>
    <path id="패스_53" data-name="패스 53" class="cls-1" d="M223.216,529.566h-42a3.016,3.016,0,0,1-3-3.024,19.186,19.186,0,0,1,19.09-19.238h9.82a19.186,19.186,0,0,1,19.09,19.238A3.016,3.016,0,0,1,223.216,529.566Zm-25.908-19.323a16.255,16.255,0,0,0-16.173,16.3.085.085,0,0,0,.085.085h42a.085.085,0,0,0,.085-.085,16.255,16.255,0,0,0-16.173-16.3Z" transform="translate(0 -81.044)"/>
  </g>
</svg>
