<svg xmlns="http://www.w3.org/2000/svg" width="55.297" height="56" viewBox="0 0 55.297 56">
  <defs>
    <style>
      .cls-1 {
        fill: #333;
      }
    </style>
  </defs>
  <g id="ico_join2_a" transform="translate(-366.944 -387.968)">
    <path id="패스_54" data-name="패스 54" class="cls-1" d="M386.268,479.381H372.756a5.818,5.818,0,0,1-5.812-5.811V442.946a5.55,5.55,0,0,1,5.543-5.543h12.153v2.836H372.487a2.71,2.71,0,0,0-2.707,2.707V473.57a2.979,2.979,0,0,0,2.975,2.975h13.513Z" transform="translate(0 -35.413)"/>
    <path id="패스_55" data-name="패스 55" class="cls-1" d="M465.587,443.968H445.609a7.587,7.587,0,0,1-7.578-7.578V395.546a7.587,7.587,0,0,1,7.578-7.578h19.978a7.587,7.587,0,0,1,7.578,7.578V436.39A7.586,7.586,0,0,1,465.587,443.968ZM445.609,390.8a4.747,4.747,0,0,0-4.742,4.742V436.39a4.747,4.747,0,0,0,4.742,4.742h19.978a4.747,4.747,0,0,0,4.741-4.742V395.546a4.747,4.747,0,0,0-4.741-4.742Z" transform="translate(-50.924 0)"/>
    <path id="패스_56" data-name="패스 56" class="cls-1" d="M468.793,425.54h-4.679a2.411,2.411,0,0,1-2.408-2.408v-4.679a2.411,2.411,0,0,1,2.408-2.408h4.679a2.411,2.411,0,0,1,2.408,2.408v4.679A2.411,2.411,0,0,1,468.793,425.54Zm-4.251-2.836h3.823V418.88h-3.823Z" transform="translate(-67.883 -20.113)"/>
    <path id="패스_57" data-name="패스 57" class="cls-1" d="M511.054,425.54h-4.679a2.411,2.411,0,0,1-2.408-2.408v-4.679a2.411,2.411,0,0,1,2.408-2.408h4.679a2.411,2.411,0,0,1,2.408,2.408v4.679A2.411,2.411,0,0,1,511.054,425.54ZM506.8,422.7h3.823V418.88H506.8Z" transform="translate(-98.157 -20.113)"/>
    <path id="패스_58" data-name="패스 58" class="cls-1" d="M468.793,471.03h-4.679a2.411,2.411,0,0,1-2.408-2.408v-4.679a2.411,2.411,0,0,1,2.408-2.408h4.679a2.411,2.411,0,0,1,2.408,2.408v4.679A2.411,2.411,0,0,1,468.793,471.03Zm-4.251-2.836h3.823V464.37h-3.823Z" transform="translate(-67.883 -52.7)"/>
    <path id="패스_59" data-name="패스 59" class="cls-1" d="M511.054,471.03h-4.679a2.411,2.411,0,0,1-2.408-2.408v-4.679a2.411,2.411,0,0,1,2.408-2.408h4.679a2.411,2.411,0,0,1,2.408,2.408v4.679A2.411,2.411,0,0,1,511.054,471.03Zm-4.251-2.836h3.823V464.37H506.8Z" transform="translate(-98.157 -52.7)"/>
    <path id="패스_60" data-name="패스 60" class="cls-1" d="M468.793,518.769h-4.679a2.411,2.411,0,0,1-2.408-2.408v-4.679a2.411,2.411,0,0,1,2.408-2.408h4.679a2.411,2.411,0,0,1,2.408,2.408v4.679A2.411,2.411,0,0,1,468.793,518.769Zm-4.251-2.836h3.823v-3.823h-3.823Z" transform="translate(-67.883 -86.898)"/>
    <path id="패스_61" data-name="패스 61" class="cls-1" d="M397.38,471.03H392.7a2.411,2.411,0,0,1-2.408-2.408v-4.679a2.411,2.411,0,0,1,2.408-2.408h4.679a2.411,2.411,0,0,1,2.408,2.408v4.679A2.411,2.411,0,0,1,397.38,471.03Zm-4.251-2.836h3.823V464.37h-3.823Z" transform="translate(-16.726 -52.7)"/>
    <path id="패스_62" data-name="패스 62" class="cls-1" d="M397.38,518.769H392.7a2.411,2.411,0,0,1-2.408-2.408v-4.679a2.411,2.411,0,0,1,2.408-2.408h4.679a2.411,2.411,0,0,1,2.408,2.408v4.679A2.411,2.411,0,0,1,397.38,518.769Zm-4.251-2.836h3.823v-3.823h-3.823Z" transform="translate(-16.726 -86.898)"/>
    <path id="패스_63" data-name="패스 63" class="cls-1" d="M511.054,518.769h-4.679a2.411,2.411,0,0,1-2.408-2.408v-4.679a2.411,2.411,0,0,1,2.408-2.408h4.679a2.411,2.411,0,0,1,2.408,2.408v4.679A2.411,2.411,0,0,1,511.054,518.769Zm-4.251-2.836h3.823v-3.823H506.8Z" transform="translate(-98.157 -86.898)"/>
  </g>
</svg>
