<svg xmlns="http://www.w3.org/2000/svg" viewBox="0 0 45 45"><defs><style>.cls-1{fill:#fe6555;}.cls-2{opacity:0.24;}.cls-3{fill:#fff;}</style></defs><title>Asset 1xxxhdpi</title><g id="Layer_2" data-name="Layer 2"><g id="Layer_1-2" data-name="Layer 1"><circle class="cls-1" cx="22.5" cy="22.5" r="22.5"/><path class="cls-2" d="M22.5,0V45a22.5,22.5,0,0,0,0-45Z"/><path class="cls-3" d="M21.79,24.93a1.08,1.08,0,0,0,1.21,0l11.37-7.79V14.58A1.63,1.63,0,0,0,32.75,13H12.25a1.63,1.63,0,0,0-1.62,1.63v2.69Z"/><polygon class="cls-3" points="27.95 23.36 34.38 29.3 34.38 18.95 27.95 23.36"/><polygon class="cls-3" points="10.63 19.09 10.63 29.88 16.73 23.28 10.63 19.09"/><path class="cls-3" d="M26.68,24.22l-2.83,1.94a2.59,2.59,0,0,1-2.91,0l-3-2L11.1,31.57a1.62,1.62,0,0,0,1.15.48h20.5a1.62,1.62,0,0,0,1.43-.87Z"/></g></g></svg>