<svg xmlns="http://www.w3.org/2000/svg" width="30" height="30" viewBox="0 0 30 30">
  <defs>
    <style>
      .cls-1 {
        fill: #547bbc;
      }

      .cls-2 {
        fill: #fff;
      }
    </style>
  </defs>
  <g id="ico_sns2" transform="translate(-24.705 -20.89)">
    <path id="패스_38" data-name="패스 38" class="cls-1" d="M39.705,50.89a15,15,0,1,0-15-15,15,15,0,0,0,15,15"/>
    <path id="패스_39" data-name="패스 39" class="cls-2" d="M47.44,40.85h1.548V39.343a4.023,4.023,0,0,1,.5-2.324,2.754,2.754,0,0,1,2.4-1.13,9.716,9.716,0,0,1,2.777.28l-.388,2.3a5.22,5.22,0,0,0-1.248-.187c-.6,0-1.142.216-1.142.819V40.85h2.47l-.172,2.243h-2.3v7.8h-2.9v-7.8H47.44Z" transform="translate(-11.349 -7.499)"/>
  </g>
</svg>
