<svg xmlns="http://www.w3.org/2000/svg" width="30" height="30" viewBox="0 0 30 30">
  <defs>
    <style>
      .cls-1 {
        fill: #fff;
      }

      .cls-2 {
        fill: #efefef;
      }

      .cls-3 {
        fill: #3e82f1;
      }

      .cls-3, .cls-4, .cls-5, .cls-6 {
        fill-rule: evenodd;
      }

      .cls-4 {
        fill: #32a753;
      }

      .cls-5 {
        fill: #f9bb00;
      }

      .cls-6 {
        fill: #e74133;
      }
    </style>
  </defs>
  <g id="ico_sns1" transform="translate(232.282 112.5)">
    <g id="그룹_131" data-name="그룹 131" transform="translate(-232.282 -112.5)">
      <path id="패스_46" data-name="패스 46" class="cls-1" d="M-215.62-81.175a14.662,14.662,0,0,0,14.663-14.662A14.663,14.663,0,0,0-215.62-110.5a14.663,14.663,0,0,0-14.662,14.663A14.662,14.662,0,0,0-215.62-81.175" transform="translate(230.62 110.838)"/>
      <path id="패스_47" data-name="패스 47" class="cls-2" d="M-217.282-82.5a15.017,15.017,0,0,1-15-15,15.017,15.017,0,0,1,15-15,15.017,15.017,0,0,1,15,15A15.017,15.017,0,0,1-217.282-82.5Zm0-29.325A14.341,14.341,0,0,0-231.606-97.5a14.34,14.34,0,0,0,14.324,14.325A14.341,14.341,0,0,0-202.958-97.5,14.341,14.341,0,0,0-217.282-111.825Z" transform="translate(232.282 112.5)"/>
    </g>
    <g id="그룹_132" data-name="그룹 132" transform="translate(-227.852 -108.267)">
      <path id="패스_48" data-name="패스 48" class="cls-3" d="M-131.907-33.026a12.369,12.369,0,0,0-.2-2.2h-10.141v4.165h5.795a4.954,4.954,0,0,1-2.149,3.25v2.7h3.48a10.5,10.5,0,0,0,3.21-7.914Z" transform="translate(153.046 44.038)"/>
      <path id="패스_49" data-name="패스 49" class="cls-4" d="M-189.627-2.788A10.28,10.28,0,0,0-182.5-5.4l-3.48-2.7a6.472,6.472,0,0,1-3.646,1.028,6.416,6.416,0,0,1-6.025-4.439h-3.6v2.79a10.763,10.763,0,0,0,9.622,5.932Z" transform="translate(200.394 24.323)"/>
      <path id="패스_50" data-name="패스 50" class="cls-5" d="M-201.292-45.4a6.47,6.47,0,0,1-.338-2.046,6.471,6.471,0,0,1,.338-2.046v-2.79h-3.6a10.761,10.761,0,0,0-1.145,4.835,10.761,10.761,0,0,0,1.145,4.835l3.6-2.79Z" transform="translate(206.035 58.21)"/>
      <path id="패스_51" data-name="패스 51" class="cls-6" d="M-189.607-83.14a5.836,5.836,0,0,1,4.125,1.61l3.095-3.088a10.382,10.382,0,0,0-7.219-2.8,10.788,10.788,0,0,0-9.642,5.932l3.6,2.79a6.429,6.429,0,0,1,6.038-4.439Z" transform="translate(200.394 87.422)"/>
    </g>
  </g>
</svg>
