<svg xmlns="http://www.w3.org/2000/svg" viewBox="0 0 19.87 18"><defs><style>.cls-1{fill:#1e90ff;}</style></defs><title>Asset 4xxxhdpi</title><g id="Layer_2" data-name="Layer 2"><g id="Isolation_Mode" data-name="Isolation Mode"><path class="cls-1" d="M16.79,0a.92.92,0,0,1,.28.76q0,7.9,0,15.81c0,.28,0,.59-.31.72s-.49-.12-.69-.28a18.31,18.31,0,0,0-5.73-3.51A16.29,16.29,0,0,0,7,12.69c-.73-.1-.73-.1-.73-.83,0-2.24,0-4.48,0-6.71,0-.45.15-.62.58-.7A20.48,20.48,0,0,0,15,1.08c.5-.35,1-.72,1.46-1.08Z"/><path class="cls-1" d="M0,6.81a2.52,2.52,0,0,1,2.82-2c.78,0,1.55,0,2.33-.12.32,0,.45.08.45.4,0,2.33,0,4.66,0,7,0,.09,0,.24,0,.27-.44.27-.19.61-.1.93.21.78.44,1.55.66,2.33A1.68,1.68,0,0,1,5,18H4.38a1.83,1.83,0,0,1-1.29-1.44c-.31-1.21-.66-2.42-1-3.62-.06-.22-.09-.45-.37-.54a2.46,2.46,0,0,1-1.72-2Z"/><path class="cls-1" d="M19.87,9a3.39,3.39,0,0,1-1.6,2.39c-.41.24-.48.21-.48-.25q0-2.51,0-5c0-.48.08-.52.5-.27a3.41,3.41,0,0,1,1.58,2.31Z"/></g></g></svg>