<svg xmlns="http://www.w3.org/2000/svg" viewBox="0 0 45 45"><defs><style>.cls-1{fill:#447583;}.cls-2{opacity:0.24;}.cls-3{fill:#fff;}</style></defs><title>Asset 2xxxhdpi</title><g id="Layer_2" data-name="Layer 2"><g id="Layer_1-2" data-name="Layer 1"><circle class="cls-1" cx="22.5" cy="22.5" r="22.5"/><path class="cls-2" d="M22.5,0V45a22.5,22.5,0,0,0,0-45Z"/><path class="cls-3" d="M27.28,8.69H17.72a3.07,3.07,0,0,0-3.06,3.06v21.5a3.07,3.07,0,0,0,3.06,3.06h9.56a3.07,3.07,0,0,0,3.06-3.06V11.75A3.07,3.07,0,0,0,27.28,8.69Zm-6.94,1.69h4.31a.63.63,0,0,1,0,1.25H20.34a.63.63,0,0,1,0-1.25Zm2.16,24a1.22,1.22,0,1,1,1.22-1.22A1.22,1.22,0,0,1,22.5,34.38Zm5.88-3.6H16.63V12.44H28.38Z"/></g></g></svg>