<svg xmlns="http://www.w3.org/2000/svg" width="30" height="30" viewBox="0 0 30 30">
  <defs>
    <style>
      .cls-1 {
        fill: #ffe603;
      }

      .cls-2 {
        fill: #3d3137;
      }
    </style>
  </defs>
  <g id="ico_sns4" transform="translate(-369.915 -20.89)">
    <path id="패스_40" data-name="패스 40" class="cls-1" d="M384.915,50.89a15,15,0,1,0-15-15,15,15,0,0,0,15,15"/>
    <path id="패스_41" data-name="패스 41" class="cls-2" d="M390.44,35.582c-5.154,0-9.332,3.3-9.332,7.371a6.955,6.955,0,0,0,3.624,5.831.746.746,0,0,1,.147.874,8.741,8.741,0,0,1-2.021,2.975s-.139.213.541.065a19.616,19.616,0,0,0,5.2-2.317.849.849,0,0,1,.434-.073l.525-.017q.434.032.878.033c5.153,0,9.331-3.3,9.331-7.371S395.593,35.582,390.44,35.582Z" transform="translate(-5.596 -7.346)"/>
    <g id="그룹_129" data-name="그룹 129" transform="translate(377.87 33.543)">
      <path id="패스_42" data-name="패스 42" class="cls-1" d="M388.9,46.218h-2.718a.378.378,0,1,0,0,.756h.964v3.194a.413.413,0,1,0,.822,0V46.973h.932a.378.378,0,1,0,0-.756Z" transform="translate(-385.79 -46.206)"/>
      <path id="패스_43" data-name="패스 43" class="cls-1" d="M395.408,49.975l-1.548-3.491h0v0a.709.709,0,0,0-.193-.212l0,0a.362.362,0,0,0-.063-.037h0l-.005,0a.388.388,0,0,0-.152-.033.393.393,0,0,0-.153.033l-.005,0h0a.355.355,0,0,0-.063.038h0a.722.722,0,0,0-.193.212l-1.55,3.493a.47.47,0,0,0-.017.342.4.4,0,0,0,.216.241.376.376,0,0,0,.159.034.452.452,0,0,0,.406-.277l.28-.632h1.848l.28.632a.451.451,0,0,0,.406.277.378.378,0,0,0,.159-.034.4.4,0,0,0,.216-.241A.465.465,0,0,0,395.408,49.975Zm-2.6-.957.629-1.416.629,1.416Z" transform="translate(-388.61 -46.195)"/>
      <path id="패스_44" data-name="패스 44" class="cls-1" d="M402.787,49.961h-1.839V46.789a.421.421,0,1,0-.839,0V50.3h0a.367.367,0,0,0,.417.4h2.258a.369.369,0,0,0,0-.736Z" transform="translate(-392.949 -46.264)"/>
      <path id="패스_45" data-name="패스 45" class="cls-1" d="M409.947,49.854l-1.339-1.693,1.03-1.046a.5.5,0,0,0,.1-.686.338.338,0,0,0-.244-.093.647.647,0,0,0-.439.2L407.6,48.014V46.795a.463.463,0,1,0-.914,0v3.344a.463.463,0,1,0,.914,0v-.952l.4-.409,1.273,1.61a.567.567,0,0,0,.43.225.373.373,0,0,0,.234-.079.392.392,0,0,0,.141-.308A.584.584,0,0,0,409.947,49.854Z" transform="translate(-396.237 -46.224)"/>
    </g>
  </g>
</svg>
