<svg xmlns="http://www.w3.org/2000/svg" xmlns:xlink="http://www.w3.org/1999/xlink" viewBox="0 0 395.84 372.97"><defs><style>.cls-1{fill:#baa4ff;}.cls-2,.cls-21,.cls-23{fill:none;}.cls-2,.cls-21{stroke:#fff;stroke-miterlimit:10;}.cls-2{stroke-width:1.13px;}.cls-3{fill:#5e9873;}.cls-4{fill:#77bd93;}.cls-5{fill:#cadb7f;}.cls-6{fill:#fff;}.cls-7{fill:#ff9666;}.cls-8{fill:#231d5a;}.cls-9{fill:#d4e9ff;}.cls-10{fill:#ff981a;}.cls-11{fill:#ffc21a;}.cls-12{fill:#6f3be0;}.cls-13{fill:#ff5a61;}.cls-14{fill:#ffa575;}.cls-15{fill:url(#linear-gradient);}.cls-16{fill:#ff6961;}.cls-17{fill:#456bff;}.cls-18{fill:#ff8e75;}.cls-19{fill:#484fb6;}.cls-20{fill:#c2e0ff;}.cls-21{stroke-width:0.67px;}.cls-22{fill:#ff716a;}.cls-23{stroke:#d4e9ff;stroke-linecap:round;stroke-linejoin:round;stroke-width:1.35px;stroke-dasharray:0 4.04;}.cls-24{fill:#4582ff;}.cls-25{fill:#6fa4ff;}</style><linearGradient id="linear-gradient" x1="342.44" y1="-239.93" x2="357.55" y2="-175.7" gradientTransform="translate(39.63 429.33) rotate(-25.89)" gradientUnits="userSpaceOnUse"><stop offset="0" stop-color="#456bff"/><stop offset="0.05" stop-color="#3f5de1"/><stop offset="0.14" stop-color="#3649b8"/><stop offset="0.22" stop-color="#2f3996"/><stop offset="0.31" stop-color="#2a2d7c"/><stop offset="0.4" stop-color="#262469"/><stop offset="0.49" stop-color="#241f5e"/><stop offset="0.59" stop-color="#231d5a"/></linearGradient></defs><title>Asset 1xxxhdpi</title><g id="Layer_2" data-name="Layer 2"><g id="OBJECTS"><path class="cls-1" d="M257.94,35.77H256.4A12.68,12.68,0,0,0,254.82,32l1.09-1.09a1.2,1.2,0,0,0,0-1.7l-2.42-2.42a1.2,1.2,0,0,0-1.7,0l-1.09,1.09a12.68,12.68,0,0,0-3.81-1.58V24.72a1.2,1.2,0,0,0-1.2-1.2h-3.42a1.2,1.2,0,0,0-1.2,1.2v1.54a12.68,12.68,0,0,0-3.81,1.58l-1.09-1.09a1.2,1.2,0,0,0-1.7,0L232,29.17a1.2,1.2,0,0,0,0,1.7L233.13,32a12.68,12.68,0,0,0-1.58,3.81H230a1.2,1.2,0,0,0-1.2,1.2V40.4a1.2,1.2,0,0,0,1.2,1.2h1.54a12.68,12.68,0,0,0,1.58,3.81L232,46.5a1.2,1.2,0,0,0,0,1.7l2.42,2.42a1.2,1.2,0,0,0,1.7,0l1.09-1.09a12.69,12.69,0,0,0,3.81,1.58v1.54a1.2,1.2,0,0,0,1.2,1.2h3.42a1.2,1.2,0,0,0,1.2-1.2V51.11a12.68,12.68,0,0,0,3.81-1.58l1.09,1.09a1.2,1.2,0,0,0,1.7,0l2.42-2.42a1.2,1.2,0,0,0,0-1.7l-1.09-1.09a12.69,12.69,0,0,0,1.58-3.81h1.54a1.2,1.2,0,0,0,1.2-1.2V37A1.2,1.2,0,0,0,257.94,35.77Zm-14,9a6.1,6.1,0,1,1,6.1-6.1A6.1,6.1,0,0,1,244,44.79Z"/><circle class="cls-2" cx="299.77" cy="101.81" r="3.1"/><circle class="cls-2" cx="61.59" cy="48.62" r="3.1"/><path class="cls-3" d="M58.22,184s-6.74-26.51-5.84-40.44l.9-13.93S45.64,136,43.84,144.5s2.7,18.87,2.7,18.87l3.59,2.25c-2.25,2.25-.9,15.73,1.8,19.32S58.22,184,58.22,184Z"/><path class="cls-4" d="M51.93,188.53s-11.68-27.41-34.15-33.25c-10.33-5.84,14.38-4.94,23.36,4.49s13.48,27,15.28,28.76S51.93,188.53,51.93,188.53Z"/><path class="cls-5" d="M57.52,185.59s2.39-18.74,15.09-26.19c5.3-5.35-9.63-.53-13.48,6.78S55.56,185,54.78,186.36,57.52,185.59,57.52,185.59Z"/><path class="cls-6" d="M57.67,201.79H48a4.75,4.75,0,0,1-4.71-4.1L40.7,178.87H65l-2.58,18.81A4.75,4.75,0,0,1,57.67,201.79Z"/><path class="cls-7" d="M225.2,169.43c-2.22,7-6.6,14.37-15.33,16.18-13,2.7-50.55.45-54.14,1.35s-2.92,7.41-.22,8.31c11,4.94,48.3,7.86,65.37,6.07,11.66-1.23,20.39-16.92,24.25-31.9Z"/><path class="cls-7" d="M158.68,188.86a36.17,36.17,0,0,0-5.33-5.62c-2.81-2.25-9-3.37-11.23-2.53s-.84,2.25,1.4,2.81,4.49,0,6.18,1.4,2.53,2.25,2.53,2.25-3.65-2-7-1.12-8.14,3.65-7.3,5.05,5.61-1.4,7.3-1.4a20.84,20.84,0,0,1,4.49.84s-3.65,0-5.61,2.53-4.77,3.09-2.25,3.65,16,1.12,18.25-.84S158.68,188.86,158.68,188.86Z"/><path class="cls-8" d="M242,135.29s-5.84-.9-11.68,9.88-8.54,29.65-9,29.21a28.38,28.38,0,0,0,16.18.9C247.83,173,246,137.53,242,135.29Z"/><path class="cls-9" d="M129.21,353.65a43.43,43.43,0,0,0-3.15,5.39c-.45,1.35-13.48.45-20.22,4.49.9,2.7,30.1,7.19,32.35,6.74.45-1.8,1.35-16.62,1.35-16.62Z"/><rect class="cls-9" x="236.15" y="234.14" width="10.78" height="131.2"/><path class="cls-9" d="M284,368.48c0,2.23-19,4-42.46,4s-42.46-1.81-42.46-4,18-5.05,41.45-5.05S284,366.25,284,368.48Z"/><path class="cls-10" d="M299.3,148.06a24.15,24.15,0,0,1,17.38,21.25c1.87,22.64,2.1,81.82-44.14,96.27-57.51,18-99.75-.9-96.15-16.18s24.26-1.8,44-51.22,35.94-51.22,58.41-52.12A65.18,65.18,0,0,1,299.3,148.06Z"/><path class="cls-11" d="M311.18,157.75a19.3,19.3,0,0,0-6.24-7.56c-6-2.88-14.47-4.59-26.11-4.13-22.47.9-38.64,2.7-58.41,52.12s-40.44,35.94-44,51.22c-1,4.33,1.66,9,7.31,12.94,16.09,8.33,47,12.21,84.35.54C325.56,244.92,311.18,157.75,311.18,157.75Z"/><path class="cls-8" d="M270.75,230.09s-5.39,27.86-36.84,34.15-52.12,11.68-58.41,13.48-28.76,74.59-32.35,78.18-11.68,3.59-17.07-1.8c-3.59-5.39,19.77-89,31.45-100.65s59.31-26.06,59.31-26.06S238.4,215.71,270.75,230.09Z"/><path class="cls-12" d="M251.2,233.73c0,.13.63,12.95-19.24,17.27-6.11,1.33-13.9,2.73-22.14,4.2-20,3.59-40.75,7.31-44.69,11.25-4.81,4.81-24.25,73.31-29.46,91.92a12.91,12.91,0,0,0,1.4,0c9-32.32,25.06-87,29-91,3.64-3.64,25.07-7.49,44-10.88,8.25-1.48,16.05-2.88,22.19-4.21,21-4.56,20.31-18.53,20.3-18.67Z"/><path class="cls-9" d="M215,290.2a43.43,43.43,0,0,0,2.61,5.67c.85,1.14-7.37,11.29-7.93,19.13,2.72.81,23.17-20.52,24.09-22.62-1.21-1.4-12.84-10.65-12.84-10.65Z"/><path class="cls-8" d="M140,233.86s37.67,44.42,72.57,57.79c8.17,0,9.86-2.09,11.35-7.29s-48.27-61.64-63.87-66.1S135.53,228.66,140,233.86Z"/><path class="cls-8" d="M147.86,220.21s1.35-7.41,20.89-.67a116.12,116.12,0,0,0,37.74,6.07l5.39,18.87-33,.67Z"/><path class="cls-13" d="M298.68,148.5c3.59,24.35,2.45,56.32-30.44,86.49-13.58,8.42-51.71,7.63-68.49-9.4-5.25-16.51,20.82-23.64,26.75-53.81s12.78-40.81,28.77-44c3.65-.73,7.43-1.5,11.13-2.2A27.42,27.42,0,0,1,298.68,148.5Z"/><path class="cls-14" d="M287.6,136s9.66,1.12,11.23,17.3-9.21,49-26.28,50.77-54.37-1.12-65.37-6.07c-2.7-.9-3.37-7.41.22-8.31s41.11,1.35,54.14-1.35,16.4-17.75,17.3-25.61-.45-18.65,2.92-22.91S287.6,136,287.6,136Z"/><path class="cls-14" d="M210.35,191.56a36.18,36.18,0,0,0-5.33-5.62c-2.81-2.25-9-3.37-11.23-2.53s-.84,2.25,1.4,2.81,4.49,0,6.18,1.4,2.53,2.25,2.53,2.25-3.65-2-7-1.12-8.14,3.65-7.3,5.05,5.62-1.4,7.3-1.4a20.84,20.84,0,0,1,4.49.84s-3.65,0-5.61,2.53-4.77,3.09-2.25,3.65,16,1.12,18.25-.84S210.35,191.56,210.35,191.56Z"/><path class="cls-8" d="M269.1,185.56c4.37,2.43,13.44,7.81,16.47,12.18,5.39.9,16.62-27,15.28-47.63-3.59-18-15.73-17.52-20.22-12.58-4.33,4.76-2.4,22.88-12.71,44.3A2.85,2.85,0,0,0,269.1,185.56Z"/><path class="cls-14" d="M255,121.47s-5.73,7.75-2.36,11.12,13.82-.67,18.2-6.4c2.36-3.71-1-16.18-1-16.18Z"/><path class="cls-14" d="M250.57,84.45s-4.53,1.78-5.8,10.88-5.45,9.15-5.92,11.16c.43,1.79,4,1.35,4,1.35s-2.6,11.53,7.49,15.12,22.06-2.67,25.15-11.17,3.9-18.2-3-24.43S257.4,80.59,250.57,84.45Z"/><path class="cls-15" d="M279.91,90.63s3-.23,5.16,5.82c1.71,6.26-6.39,16.95-11.31,19.74s-6.78.54-6.63-.37,3.84-1.46,5.33-4.38.56-5.6-1.94-6.15-3.23,3.43-4.54,4.87-1.68,1.88-3.12.57,4.17-6.95,3.81-9.6-2.49-6.75-7.56-6.14-13.06-.27-15.4-7.93c0,0-2.17-5.35-.15-9.06,2-2.36,1.35,1,5.05,1.35S257,72.94,267.83,77,279.87,85.41,279.91,90.63Z"/><circle class="cls-16" cx="255.13" cy="110.14" r="4.14" transform="translate(-22.49 122.44) rotate(-25.89)"/><rect class="cls-6" x="319.71" y="185.71" width="41.92" height="7.29"/><polygon class="cls-8" points="363.2 185.71 363.2 184.45 278.24 184.45 278.24 193 319.71 193 319.71 185.71 363.2 185.71"/><rect class="cls-6" x="323.99" y="181.18" width="41.92" height="3.27"/><polygon class="cls-17" points="367.48 181.18 367.48 179.93 282.51 179.93 282.51 184.45 323.99 184.45 323.99 181.18 367.48 181.18"/><rect class="cls-13" x="282.76" y="193" width="84.97" height="8.55"/><rect class="cls-6" x="324.24" y="194.25" width="43.49" height="7.29"/><rect class="cls-18" x="302.43" y="187.78" width="10.18" height="2.26"/><rect class="cls-19" x="313.43" y="187.78" width="1.26" height="2.26"/><path class="cls-20" d="M242.89,199.76H178.3V197h61.88a2.72,2.72,0,0,1,2.72,2.72Z"/><path class="cls-20" d="M186.57,199.23H86.87l-8.42-57.59a2.92,2.92,0,0,1,2.89-3.34h93.8a2.92,2.92,0,0,1,2.89,2.5Z"/><path class="cls-6" d="M184.66,199.23H85l-8.42-57.59a2.92,2.92,0,0,1,2.89-3.34h93.8a2.92,2.92,0,0,1,2.89,2.5Z"/><path class="cls-9" d="M133.52,172.24a6.36,6.36,0,0,1-6.57,7,8.11,8.11,0,0,1-8-7,6.36,6.36,0,0,1,6.57-7A8.11,8.11,0,0,1,133.52,172.24Z"/><polygon class="cls-8" points="343.72 206.73 311.37 372.97 314.97 372.97 350.91 205.83 343.72 206.73"/><polygon class="cls-8" points="363.49 206.73 395.84 372.97 392.25 372.97 356.31 205.83 363.49 206.73"/><rect class="cls-8" x="321.03" y="324" width="62.68" height="4.72"/><polygon class="cls-8" points="32.35 206.73 0 372.97 3.59 372.97 39.54 205.83 32.35 206.73"/><polygon class="cls-8" points="52.12 206.73 84.47 372.97 80.88 372.97 44.93 205.83 52.12 206.73"/><rect class="cls-8" x="9.66" y="324" width="62.68" height="4.72"/><path class="cls-10" d="M377.2,208.52H18.65a9.44,9.44,0,0,1-9.44-9.44H386.63A9.44,9.44,0,0,1,377.2,208.52Z"/><circle class="cls-6" cx="269.4" cy="110.57" r="2.02"/><path class="cls-21" d="M268.72,110.57s1.12,14.6-11.91,21.12-21.34,18-17.52,32.8,3.15,31.45-4,33.47"/><path class="cls-21" d="M246.93,121.36s-1.35,2.47-1.8,8.76a42.73,42.73,0,0,0,.22,9.88"/><rect class="cls-6" x="77.32" y="43.18" width="70.09" height="60.32" rx="8.42" ry="8.42"/><path class="cls-20" d="M139,43.18H85.74a8.42,8.42,0,0,0-8.42,8.42v5.5h70.09V51.6A8.42,8.42,0,0,0,139,43.18Z"/><circle class="cls-17" cx="120.54" cy="50.68" r="2.11"/><circle class="cls-4" cx="129.63" cy="50.68" r="2.11"/><circle class="cls-13" cx="138.73" cy="50.68" r="2.11"/><path class="cls-8" d="M120.23,81.14c2.47-5.84,4.72-5.17,3.37-9.21S120,67,116.41,67.44s-11.68,9.72-11.68,9.72,2,4-2.47,4.72-7.19,2.64-9,8-5.39,2.47-8.09,7.64a8.52,8.52,0,0,0-.91,5.82,8.45,8.45,0,0,0,1.47.14H103c2.88-2.52,5.6-4.94,8.48-4.83,6.07.22,12.36,1.35,12.81-6.74S117.76,87,120.23,81.14Z"/><path class="cls-22" d="M120.93,73.48a30.65,30.65,0,0,1,.85,5l1.37,3.25h-1.71a42.92,42.92,0,0,1-1,5.12c-.85.85-7.34-1.71-8.71-2.73a10.75,10.75,0,0,1-3.93-9.74c.51-5.81,7.17-6.49,8.88-6.32S120.59,70.41,120.93,73.48Z"/><path class="cls-22" d="M115.89,85.38s-2.61,1.16-2.46,5.07L103.88,90s6.37-4.63,5.21-10.28Z"/><path class="cls-8" d="M120.67,69s1,5.65-4.2,7.09c-3.91,1-5.07.43-5.07.43s-.43-2.17-2.17-.72.14,3.62,1.16,4.49l-1.16,1.88s-4.92-3.18-5.5-8,3-8,8.54-8.69S120.52,67.58,120.67,69Z"/><path class="cls-11" d="M92.63,103.5h34.23c-3.22-5.2-10.89-15.16-20.22-15.16C96.9,88.33,93.36,100.48,92.63,103.5Z"/><polyline class="cls-23" points="113.49 106.08 113.49 117.31 199.31 117.31 199.31 161.8 186.72 161.8"/><rect class="cls-6" x="173.02" y="4.99" width="70.09" height="60.32" rx="8.42" ry="8.42"/><path class="cls-20" d="M234.69,5H181.45A8.42,8.42,0,0,0,173,13.41v5.5h70.09v-5.5A8.42,8.42,0,0,0,234.69,5Z"/><circle class="cls-17" cx="216.24" cy="12.48" r="2.11"/><circle class="cls-4" cx="225.34" cy="12.48" r="2.11"/><circle class="cls-13" cx="234.44" cy="12.48" r="2.11"/><path class="cls-18" d="M214.74,45.12s.17,6.5-2.32,9c-.6,1.82,5.3,3.47,9.66-1.2a11.46,11.46,0,0,0,2.22-3.51S222,47,222.4,42C220.2,42.83,214.74,45.12,214.74,45.12Z"/><path class="cls-6" d="M214.35,35.71"/><path class="cls-18" d="M209.78,28s-2.13,1.26-2,5.94-2,5-2.08,6.09c.36.87,2.14.36,2.14.36s-.38,6,5,7,10.88-3.11,11.75-7.64.5-9.47-3.49-12S212.91,25.54,209.78,28Z"/><path class="cls-8" d="M207.9,31.42s-4.41-.61-2-7.19,10-2.92,13.92-.81A9,9,0,0,1,224.5,29a3.15,3.15,0,0,1,2.87,2.49c.6,2.44-1.38,8.78-3.45,10s-1-6.23-3.05-5.88S219,40.24,219,40.24l-1.32-.34s-1-4.83-.45-6.44l.59-1.6S215.18,35.22,207.9,31.42Z"/><circle class="cls-16" cx="214.55" cy="40.72" r="1.91" transform="translate(121.67 238.37) rotate(-75.58)"/><path class="cls-24" d="M234.69,65.31a8.4,8.4,0,0,0,6.73-3.38c-3.61-6.29-9.37-12.32-18.22-12.32-10.74,0-20.16,7.94-26.71,15.7Z"/><polyline class="cls-23" points="152.24 80.69 211.21 80.69 211.21 68.56"/><path class="cls-11" d="M89.45,73.06H87.91a12.68,12.68,0,0,0-1.58-3.81l1.09-1.09a1.2,1.2,0,0,0,0-1.7L85,64a1.2,1.2,0,0,0-1.7,0l-1.09,1.09a12.68,12.68,0,0,0-3.81-1.58V62a1.2,1.2,0,0,0-1.2-1.2H73.77a1.2,1.2,0,0,0-1.2,1.2v1.54a12.68,12.68,0,0,0-3.81,1.58L67.67,64A1.2,1.2,0,0,0,66,64l-2.42,2.42a1.2,1.2,0,0,0,0,1.7l1.09,1.09a12.68,12.68,0,0,0-1.58,3.81H61.52a1.2,1.2,0,0,0-1.2,1.2v3.42a1.2,1.2,0,0,0,1.2,1.2h1.54a12.68,12.68,0,0,0,1.58,3.81l-1.09,1.09a1.2,1.2,0,0,0,0,1.7L66,87.91a1.2,1.2,0,0,0,1.7,0l1.09-1.09a12.69,12.69,0,0,0,3.81,1.58v1.54a1.2,1.2,0,0,0,1.2,1.2h3.42a1.2,1.2,0,0,0,1.2-1.2V88.4a12.68,12.68,0,0,0,3.81-1.58l1.09,1.09a1.2,1.2,0,0,0,1.7,0l2.42-2.42a1.2,1.2,0,0,0,0-1.7L86.33,82.7a12.69,12.69,0,0,0,1.58-3.81h1.54a1.2,1.2,0,0,0,1.2-1.2V74.27A1.2,1.2,0,0,0,89.45,73.06Zm-14,9a6.1,6.1,0,1,1,6.1-6.1A6.1,6.1,0,0,1,75.48,82.08Z"/><circle class="cls-11" cx="70.02" cy="98.89" r="2.36"/><circle class="cls-1" cx="250.98" cy="58.79" r="2.36"/><path class="cls-20" d="M195.58,101.63a3.38,3.38,0,1,0-2.41,0,5.86,5.86,0,0,0-3.18,3.56c-.81-3.52-2.79-6.23-5.26-7.13a5,5,0,1,0-3.56,0c-2.46.9-4.44,3.61-5.26,7.13a5.86,5.86,0,0,0-3.18-3.56,3.38,3.38,0,1,0-2.41,0c-2.2.8-3.84,3.74-3.84,7.25,0,.09,0,.18,0,.27h32.91c0-.09,0-.18,0-.27C199.42,105.37,197.78,102.43,195.58,101.63Z"/><rect class="cls-6" x="260.52" y="60.3" width="37.19" height="23.06" rx="2.14" ry="2.14"/><path class="cls-25" d="M296.93,60.81,279.48,75.55l-17.78-15a2.14,2.14,0,0,0-.59.43l11.31,9.55-11.9,10.05v.65a2.11,2.11,0,0,0,0,.26L273,71l6.51,5.5L286,71l11.71,9.89v-.94l-11.16-9.43,10.85-9.16A2.14,2.14,0,0,0,296.93,60.81Z"/><rect class="cls-6" x="131.29" y="108.78" width="21.91" height="13.59" rx="1.26" ry="1.26"/><path class="cls-25" d="M152.75,109.08l-10.28,8.68L132,108.92a1.26,1.26,0,0,0-.35.25l6.66,5.63-7,5.92v.38a1.23,1.23,0,0,0,0,.15l7.32-6.19,3.84,3.24,3.84-3.24,6.9,5.83v-.55l-6.57-5.55,6.39-5.4A1.26,1.26,0,0,0,152.75,109.08Z"/><rect class="cls-25" x="131.3" y="26.99" width="25.37" height="5.38" rx="1.92" ry="1.92"/><rect class="cls-6" x="134.26" y="28.4" width="20.53" height="0.77"/><rect class="cls-6" x="134.26" y="30.24" width="5.84" height="0.77"/><rect class="cls-11" x="136.86" y="17.95" width="25.37" height="5.38" rx="1.92" ry="1.92"/><rect class="cls-6" x="139.82" y="19.36" width="10.51" height="0.77"/><rect class="cls-6" x="139.82" y="21.21" width="5.84" height="0.77"/><rect class="cls-25" x="131.3" y="9.04" width="25.37" height="5.38" rx="1.92" ry="1.92"/><rect class="cls-6" x="134.26" y="10.44" width="20.53" height="0.77"/><rect class="cls-6" x="134.26" y="12.29" width="5.84" height="0.77"/><rect class="cls-11" x="136.86" width="25.37" height="5.38" rx="1.92" ry="1.92"/><rect class="cls-6" x="139.82" y="1.41" width="10.51" height="0.77"/><rect class="cls-6" x="139.82" y="3.25" width="5.84" height="0.77"/><polygon class="cls-6" points="312.56 123.48 304.49 117.42 306.82 114.31 312.56 118.61 319.47 113.43 326.39 118.61 333.3 113.43 340.21 118.61 347.13 113.43 355.22 119.49 352.88 122.6 347.13 118.29 340.21 123.48 333.3 118.29 326.39 123.48 319.47 118.29 312.56 123.48"/><polygon class="cls-6" points="48.9 34.35 40.83 28.29 43.16 25.18 48.9 29.49 55.81 24.31 62.73 29.49 69.64 24.31 76.56 29.49 83.47 24.31 91.56 30.37 89.22 33.48 83.47 29.17 76.56 34.35 69.64 29.17 62.73 34.35 55.81 29.17 48.9 34.35"/><path class="cls-25" d="M273.53,15.36h20.22a3.5,3.5,0,0,1,3.5,3.5V45.69a3.5,3.5,0,0,1-3.5,3.5H282.88c-.77,1.13-2.61,3.58-4.68,4.47V49.19h-4.67a3.5,3.5,0,0,1-3.5-3.5V18.86A3.5,3.5,0,0,1,273.53,15.36Z"/><rect class="cls-6" x="273.92" y="21.58" width="14.34" height="1.25"/><rect class="cls-6" x="273.92" y="25.52" width="7.15" height="1.25"/><rect class="cls-6" x="273.92" y="29.36" width="9.2" height="1.25"/><rect class="cls-6" x="273.92" y="33.87" width="19.57" height="1.25"/><rect class="cls-6" x="273.92" y="37.82" width="9.76" height="1.24"/><rect class="cls-6" x="273.92" y="41.65" width="12.56" height="1.25"/></g></g></svg>