<svg xmlns="http://www.w3.org/2000/svg" viewBox="0 0 20.47 28.27"><defs><style>.cls-1{fill:#999;}</style></defs><title>Asset 6xxxhdpi</title><g id="Layer_2" data-name="Layer 2"><g id="Layer_1-2" data-name="Layer 1"><path class="cls-1" d="M19,28.27H1.52A1.52,1.52,0,0,1,0,26.75V1.52A1.52,1.52,0,0,1,1.52,0H12a1.52,1.52,0,0,1,1,.41l7,6.49A1.52,1.52,0,0,1,20.47,8V26.75A1.52,1.52,0,0,1,19,28.27ZM1.52,1A.52.52,0,0,0,1,1.52V26.75a.52.52,0,0,0,.52.52H19a.52.52,0,0,0,.52-.52V8a.52.52,0,0,0-.17-.38l-7-6.49A.52.52,0,0,0,12,1Z"/><rect class="cls-1" x="10.24" y="12.87" width="5.7" height="1"/><rect class="cls-1" x="10.24" y="19.91" width="5.7" height="1"/><path class="cls-1" d="M4.86,20.71c-.4-.36-.73-.65-1-1-.46-.47-.5-.95-.12-1.34s.89-.37,1.38.12c.3.29.57.61,1,1.08.19-.27.33-.51.5-.71.86-1,1.29-.88,1.72-.5s.34.92-.5,1.76c-.17.17-.35.31-.74.65a4.66,4.66,0,0,1,.76.48c.83.8,1,1.26.51,1.72s-.93.35-1.76-.51a5.54,5.54,0,0,1-.5-.73c-.46.51-.74.86-1.07,1.17a.88.88,0,1,1-1.25-1.22C4.09,21.41,4.43,21.12,4.86,20.71Z"/><path class="cls-1" d="M5.31,13.17c.76-.77,1.41-1.46,2.09-2.11a.85.85,0,0,1,1.41.18.8.8,0,0,1-.17,1C7.75,13.12,6.88,14,6,14.88a.82.82,0,0,1-1.26,0c-.45-.42-.89-.86-1.3-1.31a.81.81,0,0,1,0-1.21.84.84,0,0,1,1.26,0C4.88,12.63,5.06,12.88,5.31,13.17Z"/><polygon class="cls-1" points="19.97 8.01 11.74 8.01 11.74 0.54 12.74 0.54 12.74 7.01 19.97 7.01 19.97 8.01"/></g></g></svg>