<svg xmlns="http://www.w3.org/2000/svg" viewBox="0 0 30.79 28.27"><defs><style>.cls-1{fill:#999;}</style></defs><title>Asset 2xxxhdpi</title><g id="Layer_2" data-name="Layer 2"><g id="Layer_1-2" data-name="Layer 1"><path class="cls-1" d="M4.27,28.27a.86.86,0,0,1-.79-1.19,13,13,0,0,0,.69-3H2.1A2.1,2.1,0,0,1,0,21.94V7.42a2.1,2.1,0,0,1,2.1-2.1H16.63a2.1,2.1,0,0,1,2.1,2.1V21.94a2.1,2.1,0,0,1-2.1,2.1h-6.4c-2.41,3.15-4.66,4-5.8,4.21ZM2.1,6.32A1.1,1.1,0,0,0,1,7.42V21.94A1.1,1.1,0,0,0,2.1,23H5.28l-.06.55a16.34,16.34,0,0,1-.73,3.62c1.09-.28,3-1.16,5.08-4l.15-.2h6.9a1.1,1.1,0,0,0,1.1-1.1V7.42a1.1,1.1,0,0,0-1.1-1.1Z"/><path class="cls-1" d="M26.53,23l-.16,0c-1.14-.22-3.39-1.06-5.8-4.21H17.73V7.42a1.1,1.1,0,0,0-1.1-1.1H12.07V2.1A2.1,2.1,0,0,1,14.17,0H28.69a2.1,2.1,0,0,1,2.1,2.1V16.63a2.1,2.1,0,0,1-2.1,2.1H26.63a13,13,0,0,0,.69,3A.86.86,0,0,1,26.53,23Zm-7.8-5.23h2.34l.15.2c2.09,2.81,4,3.7,5.08,4a16.36,16.36,0,0,1-.73-3.62l-.06-.55h3.18a1.1,1.1,0,0,0,1.1-1.1V2.1A1.1,1.1,0,0,0,28.69,1H14.17a1.1,1.1,0,0,0-1.1,1.1V5.32h3.56a2.1,2.1,0,0,1,2.1,2.1Z"/><path class="cls-1" d="M9.66,17.27C8.5,17.28,8.31,17,8.49,16a3,3,0,0,1,1.26-2,4.74,4.74,0,0,0,.93-.83,1.13,1.13,0,0,0-.2-1.58,1.68,1.68,0,0,0-2.63.71,1.42,1.42,0,0,1-2,.66.9.9,0,0,1-.3-.67A3.69,3.69,0,0,1,9,9a3.69,3.69,0,0,1,4,2.55,3.53,3.53,0,0,1-1.47,3.9,1.94,1.94,0,0,0-1,1.36C10.48,17.33,10,17.28,9.66,17.27Z"/><path class="cls-1" d="M9.53,20.7A1.32,1.32,0,0,1,8.2,19.36a1.34,1.34,0,0,1,1.33-1.3,1.32,1.32,0,0,1,1.33,1.35A1.3,1.3,0,0,1,9.53,20.7Z"/></g></g></svg>