<svg xmlns="http://www.w3.org/2000/svg" viewBox="0 0 37.29 28.27"><defs><style>.cls-1{fill:#999;}</style></defs><title>Asset 4xxxhdpi</title><g id="Layer_2" data-name="Layer 2"><g id="Layer_1-2" data-name="Layer 1"><path class="cls-1" d="M15.71,28.27h-.13A1.86,1.86,0,0,1,14,27.14L14,27l2.15-9.76L29.05.34c.37-.48,1.17-.44,1.86.09l5.63,4.29a2.08,2.08,0,0,1,.63.76,1,1,0,0,1-.06,1L23.59,24.21ZM15,26.91a1,1,0,0,0,.46.35l7.43-3.83L36.32,5.88s-.13-.17-.39-.37L30.31,1.22A.9.9,0,0,0,29.77,1L17,17.76Z"/><path class="cls-1" d="M15.67,24H1.46A1.46,1.46,0,0,1,0,22.54V2.63A1.49,1.49,0,0,1,1.49,1.14H21a1.43,1.43,0,0,1,1.43,1.43v8.14l-5.38,7ZM1.49,2.14A.49.49,0,0,0,1,2.63V22.54a.46.46,0,0,0,.46.46h13.4l1.29-5.75,5.24-6.87V2.57A.43.43,0,0,0,21,2.14Z"/><rect class="cls-1" x="30.37" y="1.63" width="1" height="9.39" transform="translate(7.11 27.02) rotate(-52.65)"/><path class="cls-1" d="M9.81,13.44l4.3-4.26A7.19,7.19,0,0,1,15,8.41a1.3,1.3,0,0,1,1.76.08A1.38,1.38,0,0,1,17,10.25a2.67,2.67,0,0,1-.52.66Q13.78,13.64,11,16.36a1.51,1.51,0,0,1-2.52,0c-.93-.92-1.86-1.85-2.78-2.78a1.46,1.46,0,1,1,2-2.05c.64.63,1.27,1.27,1.91,1.9C9.72,13.44,9.75,13.44,9.81,13.44Z"/></g></g></svg>